<?xml version="1.0" encoding="utf-8"?>
<svg version="1.1" xmlns:xlink="http://www.w3.org/1999/xlink" width="35px" height="35px" xmlns="http://www.w3.org/2000/svg">
  <g transform="matrix(1 0 0 1 -183 -451 )">
    <path d="M 28.4126420454545 16.1328125  C 28.5617897727273 16.2819602272727  28.6363636363636 16.4725378787879  28.6363636363636 16.7045454545455  L 28.6363636363636 18.2954545454545  C 28.6363636363636 18.5274621212121  28.5617897727273 18.7180397727273  28.4126420454545 18.8671875  C 28.2634943181818 19.0163352272727  28.0729166666667 19.0909090909091  27.8409090909091 19.0909090909091  L 19.0909090909091 19.0909090909091  L 19.0909090909091 27.8409090909091  C 19.0909090909091 28.0729166666667  19.0163352272727 28.2634943181818  18.8671875 28.4126420454545  C 18.7180397727273 28.5617897727273  18.5274621212121 28.6363636363636  18.2954545454545 28.6363636363636  L 16.7045454545455 28.6363636363636  C 16.4725378787879 28.6363636363636  16.2819602272727 28.5617897727273  16.1328125 28.4126420454545  C 15.9836647727273 28.2634943181818  15.9090909090909 28.0729166666667  15.9090909090909 27.8409090909091  L 15.9090909090909 19.0909090909091  L 7.15909090909091 19.0909090909091  C 6.92708333333333 19.0909090909091  6.73650568181818 19.0163352272727  6.58735795454545 18.8671875  C 6.43821022727273 18.7180397727273  6.36363636363636 18.5274621212121  6.36363636363636 18.2954545454545  L 6.36363636363636 16.7045454545455  C 6.36363636363636 16.4725378787879  6.43821022727273 16.2819602272727  6.58735795454545 16.1328125  C 6.73650568181818 15.9836647727273  6.92708333333333 15.9090909090909  7.15909090909091 15.9090909090909  L 15.9090909090909 15.9090909090909  L 15.9090909090909 7.15909090909091  C 15.9090909090909 6.92708333333333  15.9836647727273 6.73650568181818  16.1328125 6.58735795454546  C 16.2819602272727 6.43821022727273  16.4725378787879 6.36363636363636  16.7045454545455 6.36363636363636  L 18.2954545454545 6.36363636363636  C 18.5274621212121 6.36363636363636  18.7180397727273 6.43821022727273  18.8671875 6.58735795454546  C 19.0163352272727 6.73650568181818  19.0909090909091 6.92708333333333  19.0909090909091 7.15909090909091  L 19.0909090909091 15.9090909090909  L 27.8409090909091 15.9090909090909  C 28.0729166666667 15.9090909090909  28.2634943181818 15.9836647727273  28.4126420454545 16.1328125  Z M 30.6498579545455 30.6498579545455  C 31.428740530303 29.8709753787879  31.8181818181818 28.9346590909091  31.8181818181818 27.8409090909091  L 31.8181818181818 7.15909090909091  C 31.8181818181818 6.06534090909091  31.428740530303 5.12902462121212  30.6498579545455 4.35014204545455  C 29.8709753787879 3.57125946969697  28.9346590909091 3.18181818181818  27.8409090909091 3.18181818181818  L 7.15909090909091 3.18181818181818  C 6.06534090909091 3.18181818181818  5.12902462121212 3.57125946969697  4.35014204545455 4.35014204545455  C 3.57125946969697 5.12902462121212  3.18181818181818 6.06534090909091  3.18181818181818 7.15909090909091  L 3.18181818181818 27.8409090909091  C 3.18181818181818 28.9346590909091  3.57125946969697 29.8709753787879  4.35014204545455 30.6498579545455  C 5.12902462121212 31.428740530303  6.06534090909091 31.8181818181818  7.15909090909091 31.8181818181818  L 27.8409090909091 31.8181818181818  C 28.9346590909091 31.8181818181818  29.8709753787879 31.428740530303  30.6498579545455 30.6498579545455  Z M 32.8995028409091 2.10049715909091  C 34.299834280303 3.50082859848485  35 5.18702651515151  35 7.15909090909091  L 35 27.8409090909091  C 35 29.8129734848485  34.299834280303 31.4991714015152  32.8995028409091 32.8995028409091  C 31.4991714015152 34.299834280303  29.8129734848485 35  27.8409090909091 35  L 7.15909090909091 35  C 5.18702651515152 35  3.50082859848485 34.299834280303  2.10049715909091 32.8995028409091  C 0.70016571969697 31.4991714015152  0 29.8129734848485  0 27.8409090909091  L 0 7.15909090909091  C 0 5.18702651515151  0.70016571969697 3.50082859848485  2.10049715909091 2.10049715909091  C 3.50082859848485 0.700165719696966  5.18702651515152 0  7.15909090909091 0  L 27.8409090909091 0  C 29.8129734848485 0  31.4991714015152 0.700165719696966  32.8995028409091 2.10049715909091  Z " fill-rule="nonzero" fill="#000000" stroke="none" transform="matrix(1 0 0 1 183 451 )" />
  </g>
</svg>