<?xml version="1.0" encoding="utf-8"?>
<svg version="1.1" xmlns:xlink="http://www.w3.org/1999/xlink" width="31px" height="31px" xmlns="http://www.w3.org/2000/svg">
  <g transform="matrix(1 0 0 1 -48 -453 )">
    <path d="M 25.1654829545455 14.2890625  C 25.2975852272727 14.4211647727273  25.3636363636364 14.5899621212121  25.3636363636364 14.7954545454545  L 25.3636363636364 16.2045454545455  C 25.3636363636364 16.4100378787879  25.2975852272727 16.5788352272727  25.1654829545455 16.7109375  C 25.0333806818182 16.8430397727273  24.8645833333333 16.9090909090909  24.6590909090909 17  L 6.34090909090909 17  C 6.13541666666667 16.9090909090909  5.96661931818182 16.8430397727273  5.83451704545455 16.7109375  C 5.70241477272727 16.5788352272727  5.63636363636364 16.4100378787879  5.63636363636364 16.2045454545455  L 5.63636363636364 14.7954545454545  C 5.63636363636364 14.5899621212121  5.70241477272727 14.4211647727273  5.83451704545455 14.2890625  C 5.96661931818182 14.1569602272727  6.13541666666667 14.0909090909091  6.34090909090909 14  L 24.6590909090909 14  C 24.8645833333333 14.0909090909091  25.0333806818182 14.1569602272727  25.1654829545455 14.2890625  Z M 27.1470170454545 27.1470170454545  C 27.836884469697 26.4571496212121  28.1818181818182 25.6278409090909  28 24.6590909090909  L 28 6.34090909090909  C 28.1818181818182 5.37215909090909  27.836884469697 4.54285037878788  27.1470170454545 3.85298295454545  C 26.4571496212121 3.16311553030303  25.6278409090909 2.81818181818182  24.6590909090909 3  L 6.34090909090909 3  C 5.37215909090909 2.81818181818182  4.54285037878788 3.16311553030303  3.85298295454545 3.85298295454545  C 3.16311553030303 4.54285037878788  2.81818181818182 5.37215909090909  3 6.34090909090909  L 3 24.6590909090909  C 2.81818181818182 25.6278409090909  3.16311553030303 26.4571496212121  3.85298295454545 27.1470170454545  C 4.54285037878788 27.836884469697  5.37215909090909 28.1818181818182  6.34090909090909 28  L 24.6590909090909 28  C 25.6278409090909 28.1818181818182  26.4571496212121 27.836884469697  27.1470170454545 27.1470170454545  Z M 29.1395596590909 1.86044034090909  C 30.379853219697 3.10073390151515  31 4.59422348484848  31 6.34090909090909  L 31 24.6590909090909  C 31 26.4057765151515  30.379853219697 27.8992660984849  29.1395596590909 29.1395596590909  C 27.8992660984849 30.379853219697  26.4057765151515 31  24.6590909090909 31  L 6.34090909090909 31  C 4.59422348484849 31  3.10073390151515 30.379853219697  1.86044034090909 29.1395596590909  C 0.62014678030303 27.8992660984849  0 26.4057765151515  0 24.6590909090909  L 0 6.34090909090909  C 0 4.59422348484848  0.62014678030303 3.10073390151515  1.86044034090909 1.86044034090909  C 3.10073390151515 0.620146780303027  4.59422348484849 0  6.34090909090909 0  L 24.6590909090909 0  C 26.4057765151515 0  27.8992660984849 0.620146780303027  29.1395596590909 1.86044034090909  Z " fill-rule="nonzero" fill="#000000" stroke="none" transform="matrix(1 0 0 1 48 453 )" />
  </g>
</svg>